<svg xmlns="http://www.w3.org/2000/svg" viewBox="0 0 100 100" height="256" width="256"><path d="M0 0h100v100H0z" fill="#35af6d"/><path d="M42.036 60.585a1.975 1.975 0 01-2.678.798L12.308 46.76a1.975 1.975 0 01.316-3.61l21.954-7.323a1.975 1.975 0 001.249-1.249l7.323-21.954a1.975 1.975 0 013.61-.316l14.623 27.05a1.975 1.975 0 01-.798 2.678l-3.476 1.88a1.975 1.975 0 01-2.678-.798l-5.94-11.004a1.975 1.975 0 00-3.619.316l-2.797 8.397a1.975 1.975 0 01-1.248 1.248l-8.397 2.797a1.975 1.975 0 00-.316 3.618l11.004 5.941a1.975 1.975 0 01.798 2.678zm20.24-15.42a1.975 1.975 0 012.678.797l19.189 35.51a1.975 1.975 0 01-2.67 2.67l-35.51-19.188a1.975 1.975 0 01-.799-2.678l1.88-3.476a1.975 1.975 0 012.67-.798l12.214 6.596a1.975 1.975 0 002.67-2.67l-6.596-12.213a1.975 1.975 0 01.798-2.67z" fill="#fff"/></svg>